<svg width="669" height="747" viewBox="0 0 669 747" fill="none" xmlns="http://www.w3.org/2000/svg">
<path d="M653.025 175.143L348.961 3.88128C344.377 1.29376 339.276 0 334.182 0C329.088 0 323.987 1.29376 319.403 3.88128L15.3385 175.143C5.85924 180.473 0 190.512 0 201.385V545.021C0 555.9 5.85924 565.927 15.3385 571.27L319.403 742.531C323.987 745.112 329.088 746.4 334.182 746.4C339.276 746.4 344.377 745.106 348.961 742.531L653.025 571.27C662.505 565.927 668.364 555.9 668.364 545.021V201.379C668.364 190.506 662.505 180.473 653.025 175.137V175.143ZM638.247 545.021L334.182 716.283L30.1172 545.021V201.379L334.182 30.1172L638.247 201.379V545.015V545.021Z" fill="#293E69"/>
<path d="M334.182 30.1172L30.1172 201.379V545.015L334.182 716.276L638.247 545.015V201.379L334.182 30.1172ZM611.799 529.565L334.182 685.935L56.5646 529.565V216.835L334.182 60.4708L611.799 216.835V529.565Z" fill="#91132B"/>
<path d="M611.799 216.835V529.565L334.182 685.935L56.5645 529.565V216.835L334.182 60.4708L611.799 216.835Z" fill="#FCFDF8"/>
</svg>
