<svg width="76" height="76" viewBox="0 0 76 76" fill="none" xmlns="http://www.w3.org/2000/svg">
<path d="M37.725 8.99664L12.4324 21.156L6.18408 48.4879L23.6878 70.3918H51.7408L69.2445 48.4879L62.9963 21.156L37.725 8.99664Z" fill="#326CE5"/>
<path d="M61.6268 45.3893L56.9192 44.3208L60.1717 42.2907L58.6097 39.7904L52.8322 43.3805L50.2644 42.8035L52.5326 38.1449L48.3813 34.854L50.4356 33.2085L57.1974 33.9778L57.5398 31.0502L53.7309 30.6228L57.5184 27.6097L55.6781 25.3017L51.8906 28.3149L52.3186 24.5111L49.3871 24.1691L48.6167 30.922L46.5625 32.5674L44.2729 27.7806L39.3085 28.9346V26.2847L44.1231 21.4766L42.0261 19.3823L39.3085 22.0963V17.2881H36.3556V22.1176L33.638 19.4037L31.541 21.4979L36.3556 26.3061V28.9346L31.2414 27.7379L28.9732 32.4606L26.919 30.8151L26.1486 24.0623L23.2171 24.3828L23.645 28.1866L19.8576 25.2163L18.0173 27.5242L21.8048 30.5373L17.9959 30.9647L18.3169 33.8924L25.0787 33.123L27.1329 34.7685L23.0031 38.0381L25.2927 42.7608L22.7249 43.3378L16.9688 39.7263L15.4067 42.2052L18.6593 44.2353L13.9517 45.3038L14.615 48.1887L19.3226 47.1202L17.2898 50.3684L19.7934 51.9498L23.4097 46.2013L25.9774 45.6243L25.956 50.924L31.006 52.0566L29.8719 54.4287L23.4525 56.6725L24.4368 59.4719L28.0531 58.2111L25.956 62.5492L28.6308 63.8313L30.7278 59.4933L31.9903 63.1048L34.7935 62.1218L32.5467 55.7108L33.6808 53.3602L37.7464 56.6725L41.8763 53.3602L43.0104 55.7322L40.7636 62.1431L43.5453 63.1261L44.8078 59.5147L46.9049 63.8741L49.5796 62.5919L47.4826 58.2325L51.0989 59.4933L52.0832 56.7152L45.6638 54.4714L44.5297 52.0994L49.6438 50.9668L49.6224 45.7312L52.1902 46.3082L55.8065 52.0566L58.3101 50.4966L56.2773 47.2484L60.9849 48.3169L61.6268 45.3893ZM48.8307 38.9784L47.3114 42.0983L41.0632 40.6666L46.0061 36.7559L48.8307 38.9784ZM42.6252 31.1784L44.1659 34.4266L39.3085 38.2945V31.9477L42.6252 31.1784ZM32.8891 31.157L36.3556 31.9691V38.3586L31.3698 34.3839L32.8891 31.157ZM26.705 38.8715L29.4867 36.6704L34.4725 40.6452L28.2456 42.0556L26.705 38.8715ZM28.909 48.552L28.9304 44.9405L35.0931 43.5301L32.3113 49.2999L28.909 48.552ZM37.725 52.8473L34.9647 50.6035L37.7464 44.855L40.5068 50.6035L37.725 52.8473ZM46.6481 48.552L43.1816 49.3213L40.4212 43.5728L46.6481 45.0046V48.552Z" fill="white"/>
</svg>
