<svg width="255" height="83" viewBox="0 0 255 83" fill="none" xmlns="http://www.w3.org/2000/svg">
<path d="M85.0791 28.2935C85.0791 23.3357 88.7382 19.938 93.3174 19.938C96.249 19.938 98.239 21.327 99.5229 23.122L97.8324 24.0623C96.9123 22.716 95.2432 21.7116 93.3174 21.7116C89.8509 21.7116 87.1547 24.4256 87.1547 28.2721C87.1547 32.0973 89.8509 34.8326 93.3174 34.8326C95.2218 34.8326 96.9123 33.871 97.8324 32.482L99.5443 33.4222C98.1962 35.26 96.249 36.6063 93.3174 36.6063C88.7382 36.6277 85.0791 33.2513 85.0791 28.2935Z" fill="white"/>
<path d="M102.112 20.2158H104.123V34.5548H111.634V36.3499H102.112V20.2158Z" fill="white"/>
<path d="M120.664 19.938C125.436 19.938 128.689 23.5281 128.689 28.2935C128.689 33.059 125.436 36.6491 120.664 36.6491C115.871 36.6491 112.64 33.059 112.64 28.2935C112.64 23.5281 115.85 19.938 120.664 19.938ZM120.664 21.733C117.027 21.733 114.737 24.5111 114.737 28.2935C114.737 32.0546 117.048 34.854 120.664 34.854C124.28 34.854 126.591 32.0546 126.591 28.2935C126.591 24.5111 124.259 21.733 120.664 21.733Z" fill="white"/>
<path d="M131.834 20.2158H133.845V30.0458C133.845 32.9949 135.45 34.854 138.425 34.854C141.399 34.854 143.004 32.9949 143.004 30.0458V20.2158H145.015V30.0672C145.015 34.0847 142.811 36.6491 138.425 36.6491C134.038 36.6491 131.834 34.0633 131.834 30.0886V20.2158Z" fill="white"/>
<path d="M148.781 20.2158H154.302C159.309 20.2158 162.583 23.7204 162.583 28.2935C162.583 32.888 159.309 36.3499 154.302 36.3499H148.781V20.2158ZM154.302 34.5548C158.218 34.5548 160.508 31.7554 160.508 28.2935C160.508 24.8102 158.304 22.0108 154.302 22.0108H150.793V34.5762H154.302V34.5548Z" fill="white"/>
<path d="M173.047 23.3357V36.3499H171.036V20.2158H173.09L182.398 32.9735V20.2158H184.41V36.3499H182.462L173.047 23.3357Z" fill="white"/>
<path d="M198.361 32.7598H190.165L188.732 36.3499H186.506L193.011 20.2158H195.515L202.041 36.3499H199.816L198.361 32.7598ZM190.743 30.9861H197.74L194.252 22.0108L190.743 30.9861Z" fill="white"/>
<path d="M205.615 21.9895H200.501V20.1944H212.762V21.9895H207.627V36.3285H205.615V21.9895Z" fill="white"/>
<path d="M215.416 20.2158H217.427V36.3499H215.416V20.2158Z" fill="white"/>
<path d="M219.545 20.2158H221.856L227.313 34.1488L232.769 20.2158H235.08L228.554 36.3499H226.05L219.545 20.2158Z" fill="white"/>
<path d="M237.156 20.2158H247.748V22.0108H239.167V27.2037H247.577V28.9987H239.167V34.5548H247.748V36.3499H237.156V20.2158Z" fill="white"/>
<path d="M89.2517 52.8901V62.6347H85.0791V46.5005H89.3587L95.9066 55.7964V46.5005H100.101V62.6347H96.0778L89.2517 52.8901Z" fill="white"/>
<path d="M111.078 46.2227C116.021 46.2227 119.701 49.6632 119.701 54.5783C119.701 59.4933 116.021 62.9338 111.078 62.9338C106.135 62.9338 102.433 59.4933 102.433 54.5783C102.433 49.6632 106.135 46.2227 111.078 46.2227ZM111.078 49.8983C108.382 49.8983 106.67 51.9284 106.67 54.5783C106.67 57.1854 108.382 59.2582 111.078 59.2582C113.753 59.2582 115.465 57.2068 115.465 54.5783C115.465 51.9284 113.731 49.8983 111.078 49.8983Z" fill="white"/>
<path d="M128.346 57.164H126.206V62.6347H122.034V46.5005H130.122C133.717 46.5005 135.75 48.8726 135.75 51.8643C135.75 54.6638 134.038 56.181 132.519 56.6939L135.814 62.6133H131.042L128.346 57.164ZM129.502 50.0052H126.206V53.638H129.502C130.593 53.638 131.513 52.9328 131.513 51.8216C131.513 50.7104 130.593 50.0052 129.502 50.0052Z" fill="white"/>
<path d="M138.318 46.5005H145.101C150.194 46.5005 153.853 49.5564 153.853 54.5569C153.853 59.5574 150.194 62.6347 145.122 62.6347H138.318V46.5005ZM145.101 59.0018C147.926 59.0018 149.573 56.9503 149.573 54.5569C149.573 52.0567 148.075 50.1334 145.122 50.1334H142.491V59.0232H145.101V59.0018Z" fill="white"/>
<path d="M156.164 46.5005H160.336V62.6347H156.164V46.5005Z" fill="white"/>
<path d="M162.647 54.5783C162.647 49.5991 166.435 46.2227 171.271 46.2227C175.294 46.2227 177.369 48.4238 178.439 50.5608L174.844 52.249C174.309 50.9668 172.94 49.8983 171.25 49.8983C168.725 49.8983 166.863 51.9284 166.863 54.5783C166.863 57.2068 168.725 59.2582 171.25 59.2582C172.919 59.2582 174.309 58.1898 174.844 56.9076L178.439 58.5958C177.391 60.6687 175.294 62.9338 171.271 62.9338C166.435 62.9125 162.647 59.5361 162.647 54.5783Z" fill="white"/>
<path d="M181.949 57.2281C183.104 58.3821 184.902 59.3651 187.106 59.3651C188.539 59.3651 189.417 58.7667 189.417 57.9761C189.417 57.0572 188.368 56.6939 186.656 56.3306C183.982 55.7963 180.258 55.1125 180.258 51.2873C180.258 48.5734 182.569 46.2227 186.699 46.2227C189.288 46.2227 191.535 46.992 193.268 48.4665L191 51.4369C189.652 50.3257 187.876 49.7701 186.442 49.7701C185.051 49.7701 184.538 50.3257 184.538 51.0309C184.538 51.8857 185.522 52.1635 187.32 52.5054C189.994 53.061 193.675 53.8303 193.675 57.4846C193.675 60.7328 191.278 62.8911 186.934 62.8911C183.661 62.8911 181.392 61.8653 179.766 60.3267L181.949 57.2281Z" fill="white"/>
<path d="M37.725 8.99664L12.4324 21.156L6.18408 48.4879L23.6878 70.3918H51.7408L69.2445 48.4879L62.9963 21.156L37.725 8.99664Z" fill="#326CE5"/>
<path d="M61.6268 45.3893L56.9192 44.3208L60.1717 42.2907L58.6097 39.7904L52.8322 43.3805L50.2644 42.8035L52.5326 38.1449L48.3813 34.854L50.4356 33.2085L57.1974 33.9778L57.5398 31.0502L53.7309 30.6228L57.5184 27.6097L55.6781 25.3017L51.8906 28.3149L52.3186 24.5111L49.3871 24.1691L48.6167 30.922L46.5625 32.5674L44.2729 27.7806L39.3085 28.9346V26.2847L44.1231 21.4766L42.0261 19.3823L39.3085 22.0963V17.2881H36.3556V22.1176L33.638 19.4037L31.541 21.4979L36.3556 26.3061V28.9346L31.2414 27.7379L28.9732 32.4606L26.919 30.8151L26.1486 24.0623L23.2171 24.3828L23.645 28.1866L19.8576 25.2163L18.0173 27.5242L21.8048 30.5373L17.9959 30.9647L18.3169 33.8924L25.0787 33.123L27.1329 34.7685L23.0031 38.0381L25.2927 42.7608L22.7249 43.3378L16.9688 39.7263L15.4067 42.2052L18.6593 44.2353L13.9517 45.3038L14.615 48.1887L19.3226 47.1202L17.2898 50.3684L19.7934 51.9498L23.4097 46.2013L25.9774 45.6243L25.956 50.924L31.006 52.0566L29.8719 54.4287L23.4525 56.6725L24.4368 59.4719L28.0531 58.2111L25.956 62.5492L28.6308 63.8313L30.7278 59.4933L31.9903 63.1048L34.7935 62.1218L32.5467 55.7108L33.6808 53.3602L37.7464 56.6725L41.8763 53.3602L43.0104 55.7322L40.7636 62.1431L43.5453 63.1261L44.8078 59.5147L46.9049 63.8741L49.5796 62.5919L47.4826 58.2325L51.0989 59.4933L52.0832 56.7152L45.6638 54.4714L44.5297 52.0994L49.6438 50.9668L49.6224 45.7312L52.1902 46.3082L55.8065 52.0566L58.3101 50.4966L56.2773 47.2484L60.9849 48.3169L61.6268 45.3893ZM48.8307 38.9784L47.3114 42.0983L41.0632 40.6666L46.0061 36.7559L48.8307 38.9784ZM42.6252 31.1784L44.1659 34.4266L39.3085 38.2945V31.9477L42.6252 31.1784ZM32.8891 31.157L36.3556 31.9691V38.3586L31.3698 34.3839L32.8891 31.157ZM26.705 38.8715L29.4867 36.6704L34.4725 40.6452L28.2456 42.0556L26.705 38.8715ZM28.909 48.552L28.9304 44.9405L35.0931 43.5301L32.3113 49.2999L28.909 48.552ZM37.725 52.8473L34.9647 50.6035L37.7464 44.855L40.5068 50.6035L37.725 52.8473ZM46.6481 48.552L43.1816 49.3213L40.4212 43.5728L46.6481 45.0046V48.552Z" fill="white"/>
</svg>

